# xmcd
#
# Track frame offsets: 
#        150
#        16234
#        35444
#        59797
#        76615
#        105278
#        123848
#        155103
#        179570
#        192617
#        206802
#        220732
#        241455
#        260971
#
# Disc length: 3771 seconds
#
# Revision: 0
# Processed by: cddbd v1.5.1PL0 Copyright (c) Steve Scherf et al.
# Submitted via: ExactAudioCopy v0.95a5
#
DISCID=cc0eb90e
DTITLE=Eric Sardinas - Treat Me Right
DYEAR=1999
DGENRE=Blues
TTITLE0=Treat Me Right
TTITLE1=Write Me A Few Lines
TTITLE2=Write Me A Few Lines
TTITLE3=Cherry Bomb
TTITLE4=My Baby's Got Something
TTITLE5=Give Me Love
TTITLE6=Rollin' And Tumblin'
TTITLE7=Low Down Love
TTITLE8=Get Along Rider
TTITLE9=Goin' To The River
TTITLE10=I Can't Be Satisfied
TTITLE11=Sweetwater Blues
TTITLE12=Down In The Bottom
TTITLE13=Tired Of Tryin'
EXTD=
EXTT0=
EXTT1=
EXTT2=
EXTT3=
EXTT4=
EXTT5=
EXTT6=
EXTT7=
EXTT8=
EXTT9=
EXTT10=
EXTT11=
EXTT12=
EXTT13=
PLAYORDER=
